<svg width="26" height="26" viewBox="0 0 26 26" fill="none" xmlns="http://www.w3.org/2000/svg">
<path d="M20.537 8.63418C18.4432 8.63418 16.5725 9.85598 15.7711 11.7471L15.4375 12.52L17.4855 13.3924L17.8186 12.6195C18.2706 11.5531 19.3375 10.865 20.537 10.865C22.2914 10.865 23.4701 12.0467 23.4701 13.8057V13.9225C22.3468 13.9525 20.9996 14.0266 19.8001 14.1683C17.0315 14.4948 15.3791 16.0081 15.3791 18.2166C15.3791 19.3927 15.8219 20.451 16.6263 21.1919C17.3814 21.8881 18.4107 22.2436 19.5259 22.2436C21.093 22.2436 22.4458 21.8713 23.4701 21.0939V22.2436H25.6953V13.8057C25.6953 10.8091 23.5259 8.63418 20.537 8.63418ZM19.5259 20.0635C18.6393 20.0635 17.6038 19.5638 17.6038 18.2166C17.6038 17.6758 17.7978 17.297 18.2325 16.9882C18.656 16.6876 19.305 16.4728 20.0606 16.3839C21.1666 16.2534 22.4123 16.1833 23.463 16.1544C23.3533 18.7691 22.0629 20.0635 19.5259 20.0635ZM4.73535 16.5495H11.1084L13.2509 22.2436H15.6406L8.64558 2.59766H7.25705L0.203125 22.2436H2.59289L4.73535 16.5495ZM7.92188 6.80286L10.2705 14.3217H5.57324L7.92188 6.80286Z" fill="#757575"/>
</svg>
